HIERARCHY
ROOT Hips
{
    OFFSET   0.000000   0.000000   0.000000
    CHANNELS 6 Xposition Yposition Zposition Zrotation Xrotation Yrotation
    JOINT Chest
    {
        OFFSET   0.000000   8.007230   0.000000
        CHANNELS 3 Zrotation Xrotation Yrotation
        JOINT Chest2
        {
            OFFSET   0.000000  22.077100   0.000000
            CHANNELS 3 Zrotation Xrotation Yrotation
            JOINT Neck
            {
                OFFSET   0.000000  23.254800   0.000000
                CHANNELS 3 Zrotation Xrotation Yrotation
                JOINT Head
                {
                    OFFSET   0.000010  14.370000   1.956600
                    CHANNELS 3 Zrotation Xrotation Yrotation
                    End Site
                    {
                        OFFSET   0.000000  19.566000   0.000000
                    }
                }
            }
            JOINT LeftCollar
            {
                OFFSET   3.911900  19.017000  -0.467062
                CHANNELS 3 Zrotation Xrotation Yrotation
                JOINT LeftShoulder
                {
                    OFFSET  10.383700   0.000000   0.000000
                    CHANNELS 3 Zrotation Xrotation Yrotation
                    JOINT LeftElbow
                    {
                        OFFSET  26.662100   0.001193   0.000835
                        CHANNELS 3 Zrotation Xrotation Yrotation
                        JOINT LeftWrist
                        {
                            OFFSET  28.869000  -0.000058  -0.000075
                            CHANNELS 3 Zrotation Xrotation Yrotation
                            JOINT LeftFinger0
                            {
                                OFFSET   2.044660  -2.323460   3.252850
                                CHANNELS 3 Zrotation Xrotation Yrotation
                                JOINT LeftFinger01
                                {
                                    OFFSET   3.088130   0.000000   0.000000
                                    CHANNELS 3 Zrotation Xrotation Yrotation
                                    JOINT LeftFinger02
                                    {
                                        OFFSET   2.639450   0.000000   0.000000
                                        CHANNELS 3 Zrotation Xrotation Yrotation
                                        End Site
                                        {
                                            OFFSET   2.582190   0.000000   0.000000
                                        }
                                    }
                                }
                            }
                            JOINT LeftFinger1
                            {
                                OFFSET   8.364480   0.000000   3.252850
                                CHANNELS 3 Zrotation Xrotation Yrotation
                                JOINT LeftFinger11
                                {
                                    OFFSET   4.646920   0.000000   0.000000
                                    CHANNELS 3 Zrotation Xrotation Yrotation
                                    JOINT LeftFinger12
                                    {
                                        OFFSET   2.323460   0.000000   0.000000
                                        CHANNELS 3 Zrotation Xrotation Yrotation
                                        End Site
                                        {
                                            OFFSET   2.273050   0.000000   0.000000
                                        }
                                    }
                                }
                            }
                            JOINT LeftFinger2
                            {
                                OFFSET   8.364490   0.000016   1.078090
                                CHANNELS 3 Zrotation Xrotation Yrotation
                                JOINT LeftFinger21
                                {
                                    OFFSET   5.111620   0.000000   0.000000
                                    CHANNELS 3 Zrotation Xrotation Yrotation
                                    JOINT LeftFinger22
                                    {
                                        OFFSET   2.788150   0.000012   0.000000
                                        CHANNELS 3 Zrotation Xrotation Yrotation
                                        End Site
                                        {
                                            OFFSET   2.727660   0.000000   0.000000
                                        }
                                    }
                                }
                            }
                            JOINT LeftFinger3
                            {
                                OFFSET   7.899780   0.000014  -1.078090
                                CHANNELS 3 Zrotation Xrotation Yrotation
                                JOINT LeftFinger31
                                {
                                    OFFSET   4.646930   0.000000   0.000000
                                    CHANNELS 3 Zrotation Xrotation Yrotation
                                    JOINT LeftFinger32
                                    {
                                        OFFSET   2.323470   0.000000   0.000000
                                        CHANNELS 3 Zrotation Xrotation Yrotation
                                        End Site
                                        {
                                            OFFSET   2.273050   0.000000   0.000000
                                        }
                                    }
                                }
                            }
                            JOINT LeftFinger4
                            {
                                OFFSET   7.435090   0.000000  -3.252850
                                CHANNELS 3 Zrotation Xrotation Yrotation
                                JOINT LeftFinger41
                                {
                                    OFFSET   3.717550   0.000000   0.000000
                                    CHANNELS 3 Zrotation Xrotation Yrotation
                                    JOINT LeftFinger42
                                    {
                                        OFFSET   1.858770   0.000000   0.000000
                                        CHANNELS 3 Zrotation Xrotation Yrotation
                                        End Site
                                        {
                                            OFFSET   1.818440   0.000000   0.000000
                                        }
                                    }
                                }
                            }
                        }
                    }
                }
            }
            JOINT RightCollar
            {
                OFFSET  -3.911900  19.017000  -0.467063
                CHANNELS 3 Zrotation Xrotation Yrotation
                JOINT RightShoulder
                {
                    OFFSET -10.383700   0.000023   0.000000
                    CHANNELS 3 Zrotation Xrotation Yrotation
                    JOINT RightElbow
                    {
                        OFFSET -26.662100   0.001246   0.001011
                        CHANNELS 3 Zrotation Xrotation Yrotation
                        JOINT RightWrist
                        {
                            OFFSET -28.869000  -0.000026  -0.000078
                            CHANNELS 3 Zrotation Xrotation Yrotation
                            JOINT RightFinger0
                            {
                                OFFSET  -2.044660  -2.323490   3.252850
                                CHANNELS 3 Zrotation Xrotation Yrotation
                                JOINT RightFinger01
                                {
                                    OFFSET  -3.088130   0.000000   0.000000
                                    CHANNELS 3 Zrotation Xrotation Yrotation
                                    JOINT RightFinger02
                                    {
                                        OFFSET  -2.639460   0.000000   0.000000
                                        CHANNELS 3 Zrotation Xrotation Yrotation
                                        End Site
                                        {
                                            OFFSET  -2.582190   0.000000   0.000000
                                        }
                                    }
                                }
                            }
                            JOINT RightFinger1
                            {
                                OFFSET  -8.364480   0.000000   3.252850
                                CHANNELS 3 Zrotation Xrotation Yrotation
                                JOINT RightFinger11
                                {
                                    OFFSET  -4.646920   0.000000   0.000000
                                    CHANNELS 3 Zrotation Xrotation Yrotation
                                    JOINT RightFinger12
                                    {
                                        OFFSET  -2.323470   0.000000   0.000000
                                        CHANNELS 3 Zrotation Xrotation Yrotation
                                        End Site
                                        {
                                            OFFSET  -2.273050   0.000000   0.000000
                                        }
                                    }
                                }
                            }
                            JOINT RightFinger2
                            {
                                OFFSET  -8.364480   0.000000   1.078090
                                CHANNELS 3 Zrotation Xrotation Yrotation
                                JOINT RightFinger21
                                {
                                    OFFSET  -5.111620   0.000000   0.000000
                                    CHANNELS 3 Zrotation Xrotation Yrotation
                                    JOINT RightFinger22
                                    {
                                        OFFSET  -2.788160   0.000000   0.000000
                                        CHANNELS 3 Zrotation Xrotation Yrotation
                                        End Site
                                        {
                                            OFFSET  -2.727660   0.000000   0.000000
                                        }
                                    }
                                }
                            }
                            JOINT RightFinger3
                            {
                                OFFSET  -7.899780   0.000000  -1.078090
                                CHANNELS 3 Zrotation Xrotation Yrotation
                                JOINT RightFinger31
                                {
                                    OFFSET  -4.646930   0.000000   0.000000
                                    CHANNELS 3 Zrotation Xrotation Yrotation
                                    JOINT RightFinger32
                                    {
                                        OFFSET  -2.323470   0.000000   0.000000
                                        CHANNELS 3 Zrotation Xrotation Yrotation
                                        End Site
                                        {
                                            OFFSET  -2.273050   0.000000   0.000000
                                        }
                                    }
                                }
                            }
                            JOINT RightFinger4
                            {
                                OFFSET  -7.435090   0.000000  -3.252850
                                CHANNELS 3 Zrotation Xrotation Yrotation
                                JOINT RightFinger41
                                {
                                    OFFSET  -3.717550   0.000000   0.000000
                                    CHANNELS 3 Zrotation Xrotation Yrotation
                                    JOINT RightFinger42
                                    {
                                        OFFSET  -1.858760   0.000000   0.000000
                                        CHANNELS 3 Zrotation Xrotation Yrotation
                                        End Site
                                        {
                                            OFFSET  -1.818440   0.000000   0.000000
                                        }
                                    }
                                }
                            }
                        }
                    }
                }
            }
        }
    }
    JOINT LeftHip
    {
        OFFSET   9.783010   0.000000   0.000000
        CHANNELS 3 Zrotation Xrotation Yrotation
        JOINT LeftKnee
        {
            OFFSET   0.000073 -41.789100   0.001749
            CHANNELS 3 Zrotation Xrotation Yrotation
            JOINT LeftAnkle
            {
                OFFSET   0.000111 -41.133200  -0.000179
                CHANNELS 3 Zrotation Xrotation Yrotation
                JOINT LeftToe
                {
                    OFFSET   0.000000  -6.358960  14.674500
                    CHANNELS 3 Zrotation Xrotation Yrotation
                    End Site
                    {
                        OFFSET   0.000000   0.000000   3.913200
                    }
                }
            }
        }
    }
    JOINT RightHip
    {
        OFFSET  -9.783010   0.000000   0.000000
        CHANNELS 3 Zrotation Xrotation Yrotation
        JOINT RightKnee
        {
            OFFSET   0.000424 -41.789200   0.005205
            CHANNELS 3 Zrotation Xrotation Yrotation
            JOINT RightAnkle
            {
                OFFSET   0.000000 -41.133200  -0.000155
                CHANNELS 3 Zrotation Xrotation Yrotation
                JOINT RightToe
                {
                    OFFSET   0.000000  -6.358960  14.674500
                    CHANNELS 3 Zrotation Xrotation Yrotation
                    End Site
                    {
                        OFFSET   0.000000   0.000000   3.913200
                    }
                }
            }
        }
    }
}
MOTION
Frames: 6
Frame Time:   0.016667
 -0.627744  89.345200   0.733615  -1.742760 -18.594200   4.839590   1.109560  13.608200   5.075140   0.976347  27.260200  10.329500   3.825440  -1.817340   0.121476   6.301920  -3.635660 -15.846300  -4.370470 -10.122300  -2.306410 -68.334800  28.578200  -7.262050  -3.703970 -11.606300 -19.373800  15.399700 -15.732000   8.107150  47.185300  44.571900 -82.299900 -30.311700  -0.002905   0.002455 -10.155800  -0.002585  -0.001495 -37.487800   5.523230  -7.152850 -30.954500   0.013272  -0.001430 -21.668200   0.006971   0.000856 -31.336800  -2.142080   3.512620 -47.103700   0.010213   0.001522 -31.371100   0.001253   0.012220 -31.376600  -2.144510   3.511130 -47.163500   0.010070   0.000576 -31.410900   0.003359   0.010700 -40.733500  -2.687030   3.115790 -61.209900  -0.008003   0.003195 -40.765800  -0.000274  -0.003247  12.657200  -7.701640  11.950900  60.757900   6.645520  47.667600 -28.847400 -39.380800  62.391300  65.049000 -63.046200  60.992000 -52.189200  50.531100  85.689600  35.610800   0.001878  -0.001277  12.805400   0.000791  -0.003831  67.429300   3.599670   1.461910  55.214100  -0.017445  -0.008281  41.410600  -0.013994   0.005734  77.224600   0.031664   0.030622  77.223400   0.002676   0.037046  57.917500   0.025593   0.009277  79.999900  -4.935350  -0.857190  80.037500   0.006287   0.020251  60.028100   0.026769   0.009981  89.939200 -10.012500  -0.004753 110.000000  -0.002380  -0.000381  80.000000  -0.003083  -0.005383   2.571380  21.289100   3.816270   2.284630   0.002283  -1.580190  -2.645510  -3.571290   0.064461  -0.000000   0.000000   0.000000   4.977010  20.571600  -9.076770  -0.225860   4.476260  -9.461550  -0.424107  -7.343770  -0.690062  -0.000000   0.000000   0.000000
 -0.608235  89.338200   0.783939  -1.754150 -18.566400   4.865820   1.131330  13.548100   4.983660   1.051430  27.142300  10.129500   3.769430  -1.752310   0.114844   6.203550  -3.507850 -15.527400  -4.391840 -10.098300  -2.327610 -68.450400  28.385100  -7.072290  -3.662480 -11.435500 -19.558000  15.343000 -15.838200   8.104480  47.373400  44.837000 -82.766400 -30.348400  -0.002900   0.002410 -10.174200  -0.002584  -0.001501 -37.544000   5.524180  -7.142370 -31.000500   0.013283  -0.001373 -21.700400   0.006912   0.000906 -31.367400  -2.158310   3.535620 -47.151600   0.010239   0.001574 -31.403000   0.001204   0.012217 -31.412500  -2.161260   3.533800 -47.219000   0.010104   0.000638 -31.447900   0.003315   0.010698 -40.811500  -2.710290   3.133080 -61.328500  -0.007989   0.003192 -40.844800  -0.000248  -0.003202  12.616200  -7.634310  11.878800  60.773100   6.853870  47.162700 -28.508000 -39.726400  63.106300  66.213500 -60.109000  61.138000 -54.370800  51.152900  85.431100  35.141000  -0.009424  -0.002393  12.570500  -0.004638  -0.004178  65.118700   4.994210   2.315980  53.371500  -0.023091  -0.006362  40.028600  -0.017390   0.005161  74.968200  -0.104767  -0.011311  74.965500   0.001820   0.036859  56.224100   0.025395   0.008845  78.023900  -4.917970  -1.023730  78.068100   0.005317   0.023984  58.551100   0.026184   0.009643  89.243900 -10.011100  -0.121021 110.000000  -0.002289  -0.000304  79.993900  -0.002561  -0.005682   2.629860  21.291400   3.825110   2.229230   0.000726  -1.575380  -2.632900  -3.597080  -0.003626   0.000000   0.000000   0.000000   5.041330  20.549300  -9.046020  -0.268453   4.506720  -9.461310  -0.429283  -7.377660  -0.761135  -0.000000   0.000000   0.000000
 -0.591754  89.332900   0.825412  -1.762110 -18.540100   4.868930   1.144810  13.479400   4.899880   1.109320  27.006500   9.947450   3.727490  -1.640100   0.106853   6.138040  -3.283240 -15.217100  -4.414750 -10.065800  -2.348740 -68.509200  28.317700  -6.970880  -3.638330 -11.347500 -19.630700  15.216700 -15.854600   8.070160  47.629200  45.100300 -83.224700 -30.360700  -0.002892   0.002366 -10.180400  -0.002584  -0.001510 -37.564500   5.529960  -7.140940 -31.017400   0.013294  -0.001316 -21.712200   0.006852   0.000956 -31.371800  -2.160630   3.538910 -47.158500   0.010265   0.001627 -31.407500   0.001157   0.012213 -31.420700  -2.163650   3.537040 -47.231900   0.010139   0.000698 -31.456500   0.003272   0.010696 -40.841900  -2.713610   3.135550 -61.374700  -0.007974   0.003189 -40.875500  -0.000222  -0.003155  12.582500  -7.587610  11.826400  60.803800   6.960950  46.669900 -28.155600 -39.872600  63.604600  65.703600 -58.591100  59.845600 -56.271200  51.464800  85.122200  34.491100  -0.024326  -0.004347  12.245600  -0.012316  -0.004493  62.872300   6.576330   3.366590  51.616800  -0.026628  -0.003761  38.712600  -0.018167   0.005027  72.782300  -0.391895  -0.112724  72.778400   0.000909   0.035547  54.583800   0.024267   0.008417  75.986600  -4.911810  -1.208640  76.037800   0.004286   0.027717  57.028300   0.024888   0.009268  87.660100 -10.001100  -0.390399 110.000000  -0.002200  -0.000229  79.987800  -0.002007  -0.005979   2.664410  21.293900   3.826430   2.174710  -0.000410  -1.541740  -2.616940  -3.624630  -0.040535   0.000000   0.000000  -0.000000   5.097490  20.509800  -9.018650  -0.324802   4.559690  -9.457550  -0.433091  -7.416840  -0.811500   0.000000   0.000000   0.000000
 -0.574594  89.328700   0.859932  -1.774860 -18.516600   4.805310   1.149480  13.397700   4.830380   1.145260  26.843800   9.797250   3.696920  -1.535850   0.099251   6.086150  -3.075580 -14.954300  -4.433270  -9.991420  -2.331110 -68.522200  28.412900  -6.981000  -3.605760 -11.336300 -19.602500  15.028300 -15.576600   7.969200  47.911000  45.292600 -83.503000 -30.332800  -0.002888   0.002339 -10.166500  -0.002585  -0.001516 -37.496200   5.558060  -7.189650 -30.965100   0.013305  -0.001259 -21.675600   0.006790   0.001007 -31.310900  -2.130420   3.497650 -47.064600   0.010294   0.001684 -31.345000   0.001112   0.012201 -31.365700  -2.133760   3.495590 -47.146800   0.010178   0.000757 -31.399800   0.003229   0.010698 -40.768500  -2.676400   3.100400 -61.262000  -0.007961   0.003183 -40.800400  -0.000196  -0.003107  12.535600  -7.502300  11.781900  60.751700   6.974710  46.243500 -28.082700 -39.780100  63.651100  64.141300 -58.403600  57.963600 -57.582300  51.418200  84.573600  33.680100  -0.032116  -0.006142  11.840100  -0.015884  -0.004774  60.736300   8.040750   4.526170  49.964200  -0.026609  -0.003042  37.473100  -0.017277   0.005027  70.710800  -0.776967  -0.268208  70.708100  -0.000047   0.032342  53.031100   0.021431   0.008012  73.914200  -4.986150  -1.427230  73.974800   0.003235   0.027347  55.481000   0.022363   0.008891  85.272900  -9.972920  -0.804512 110.000000  -0.002115  -0.000170  80.076900  -0.001417  -0.006270   2.655720  21.290200   3.812100   2.142950   0.031715  -1.454060  -2.592430  -3.670190  -0.035071   0.000000   0.000000   0.000000   5.125780  20.475000  -8.987680  -0.377706   4.611780  -9.410310  -0.428950  -7.461090  -0.827519  -0.000000   0.000000   0.000000
 -0.555541  89.325600   0.890248  -1.811530 -18.494800   4.666190   1.150040  13.305500   4.771310   1.170630  26.659800   9.669690   3.669940  -1.439850   0.092378   6.039950  -2.884130 -14.729300  -4.450380  -9.892540  -2.301700 -68.555600  28.558100  -7.002240  -3.557170 -11.327300 -19.541000  14.862500 -15.116200   7.859550  48.061800  45.384200 -83.615500 -30.294300  -0.002886   0.002317 -10.147200  -0.002589  -0.001519 -37.397100   5.586630  -7.256790 -30.887900   0.013316  -0.001202 -21.621500   0.006729   0.001060 -31.222600  -2.086620   3.437730 -46.928400   0.010323   0.001741 -31.254300   0.001067   0.012189 -31.284500  -2.090330   3.435460 -47.021300   0.010217   0.000817 -31.316200   0.003187   0.010699 -40.655900  -2.622090   3.049590 -61.089100  -0.007948   0.003176 -40.685300  -0.000169  -0.003060  12.467200  -7.393210  11.727800  60.547300   6.978340  45.890700 -28.024100 -39.617300  63.488800  62.144900 -59.244300  55.768500 -58.405700  51.323500  84.015600  32.806600  -0.035263  -0.007969  11.403300  -0.017204  -0.005019  58.748400   9.323150   5.665120  48.453000  -0.026481  -0.002821  36.339700  -0.014719   0.005031  68.812300  -1.173880  -0.445287  68.813100  -0.001043   0.027321  51.609900   0.017257   0.007666  71.912600  -5.129200  -1.662540  71.985200   0.002162   0.025057  53.988900   0.018642   0.008537  82.832600  -9.935090  -1.229440 110.000000  -0.002029  -0.000115  80.166000  -0.000799  -0.006565   2.638260  21.286800   3.785760   2.127580   0.063843  -1.345730  -2.560150  -3.721250   0.003192  -0.000000   0.000000   0.000000   5.137010  20.442300  -8.949410  -0.426182   4.657760  -9.333970  -0.418430  -7.498700  -0.829867   0.000000   0.000000  -0.000000
 -0.530107  89.323700   0.920262  -1.875390 -18.474400   4.484190   1.151210  13.202500   4.721510   1.195640  26.454200   9.561090   3.637170  -1.374680   0.087375   5.984890  -2.753960 -14.547200  -4.465480  -9.766460  -2.271470 -68.619100  28.663100  -7.036430  -3.454280 -11.240000 -19.445100  14.874500 -14.670300   7.798070  48.030600  45.313700 -83.450100 -30.279300  -0.002884   0.002290 -10.139700  -0.002593  -0.001514 -37.338100   5.592900  -7.282170 -30.840700   0.013325  -0.001147 -21.588500   0.006671   0.001113 -31.173900  -2.062490   3.404350 -46.853000   0.010353   0.001796 -31.204100   0.001020   0.012183 -31.235100  -2.066130   3.402150 -46.944800   0.010254   0.000876 -31.265200   0.003146   0.010698 -40.572400  -2.590910   3.022040 -60.961300  -0.007932   0.003171 -40.600200  -0.000142  -0.003015  12.351500  -7.236650  11.635000  60.182100   7.075390  45.663600 -28.198300 -39.368400  62.826200  58.713000 -61.202600  52.546400 -58.827400  51.029400  83.770300  31.950500  -0.026107  -0.009718  10.975300  -0.013197  -0.005227  56.982900  10.332100   6.627290  47.122600  -0.019239  -0.002514  35.343100  -0.008940   0.005159  67.177000  -1.458910  -0.607566  67.182000  -0.001852   0.018201  50.386500   0.011203   0.007399  70.106900  -5.294450  -1.907980  70.193500   0.001264   0.018512  52.645100   0.012734   0.008212  81.284900  -9.894070  -1.499860 110.000000  -0.001937  -0.000043  80.049300  -0.000480  -0.006871   2.611150  21.313500   3.759940   2.125130   0.057603  -1.247170  -2.514660  -3.770890   0.110348  -0.000000   0.000000  -0.000000   5.130010  20.417200  -8.888340  -0.455905   4.682250  -9.269650  -0.393205  -7.515130  -0.787837   0.000000   0.000000  -0.000000
